<svg width="200" height="250" viewBox="0 0 200 250" fill="none" xmlns="http://www.w3.org/2000/svg">
<g clip-path="url(#clip0_159_3181)">
<path d="M43.7502 155.809H200V168.779H47.155C46.252 168.779 45.386 168.42 44.7475 167.782C44.109 167.144 43.7502 166.278 43.7502 165.375V155.809Z" fill="#1D1D1B"/>
<path d="M62.3689 54.1678H194.139C195.799 54.1678 197.391 54.8234 198.565 55.9904C199.739 57.1573 200.399 58.7401 200.399 60.3904V85.8509H62.3689V54.1678Z" fill="#1D1D1B"/>
<path d="M200.399 54.1678H68.6286C66.9684 54.1678 65.3762 54.8234 64.2023 55.9904C63.0284 57.1573 62.3689 58.7401 62.3689 60.3904V85.8509H200.399V54.1678Z" fill="#1D1D1B"/>
<path d="M200.399 85.851H167.681V156.371H200.399V85.851Z" fill="#1D1D1B"/>
<path d="M43.6174 197.161H62.0214V250.306H50.2201C48.4689 250.306 46.7895 249.598 45.5513 248.338C44.3131 247.078 43.6174 245.368 43.6174 243.586V197.161Z" fill="#1D1D1B"/>
<path d="M170.579 177.742H200.051V250.307H167.333V180.941C167.336 180.092 167.679 179.278 168.287 178.678C168.896 178.079 169.72 177.742 170.579 177.742Z" fill="#1D1D1B"/>
<path d="M167.333 217.601H62.0212V250.307H167.333V217.601Z" fill="#1D1D1B"/>
<path d="M47.104 184.232H168.1V197.191H43.7197V187.625C43.7197 186.727 44.076 185.866 44.7103 185.229C45.3447 184.593 46.2055 184.235 47.104 184.232Z" fill="#1D1D1B"/>
<path d="M6.46184 96.1633H31.8798V250H6.53341C4.80064 250 3.13884 249.312 1.91359 248.087C0.688339 246.862 0 245.201 0 243.469L0 102.623C0 100.909 0.680799 99.2666 1.89263 98.0552C3.10446 96.8439 4.74805 96.1633 6.46184 96.1633Z" fill="#1D1D1B"/>
<path d="M31.021 96.2042H152.17V109.848C152.17 110.467 152.048 111.08 151.811 111.651C151.575 112.223 151.227 112.742 150.79 113.18C150.352 113.617 149.832 113.965 149.261 114.201C148.689 114.438 148.076 114.56 147.457 114.56H31.021V96.1633V96.2042Z" fill="#1D1D1B"/>
<path d="M49.8851 0H150.637C151.162 0.00314864 151.679 0.132241 152.144 0.376464C152.608 0.620687 153.008 0.972897 153.309 1.40349C153.609 1.83408 153.802 2.33048 153.871 2.85099C153.939 3.3715 153.882 3.90091 153.704 4.39474L138.592 46.104H61.6023L46.7257 4.47652C46.5456 3.97071 46.4896 3.42902 46.5626 2.89709C46.6355 2.36515 46.8352 1.85852 47.1448 1.4198C47.4544 0.981083 47.8649 0.623137 48.3418 0.376058C48.8187 0.12898 49.3479 7.94607e-06 49.8851 0Z" fill="#1D1D1B"/>
</g>
<defs>
<clipPath id="clip0_159_3181">
<rect width="200" height="250" fill="white"/>
</clipPath>
</defs>
</svg>
